<svg xmlns="http://www.w3.org/2000/svg" xmlns:xlink="http://www.w3.org/1999/xlink" zoomAndPan="magnify" preserveAspectRatio="xMidYMid meet" version="1.0" viewBox="11.52 6.64 184.15 49.5"><defs><g/><clipPath id="797417b8a3"><path d="M 11.515625 6.644531 L 55.765625 6.644531 L 55.765625 56.144531 L 11.515625 56.144531 Z M 11.515625 6.644531 " clip-rule="nonzero"/></clipPath><clipPath id="b9aaedb896"><path d="M 40 39 L 45 39 L 45 45.082031 L 40 45.082031 Z M 40 39 " clip-rule="nonzero"/></clipPath><clipPath id="acef9d11e5"><path d="M 42 32 L 46 32 L 46 45.082031 L 42 45.082031 Z M 42 32 " clip-rule="nonzero"/></clipPath><clipPath id="eb7c209503"><path d="M 47 28 L 51.515625 28 L 51.515625 39 L 47 39 Z M 47 28 " clip-rule="nonzero"/></clipPath><clipPath id="3bde906a5c"><path d="M 35 27.082031 L 47 27.082031 L 47 32 L 35 32 Z M 35 27.082031 " clip-rule="nonzero"/></clipPath><clipPath id="54789ec405"><path d="M 33.515625 32 L 36 32 L 36 38 L 33.515625 38 Z M 33.515625 32 " clip-rule="nonzero"/></clipPath></defs><g clip-path="url(#797417b8a3)"><path fill="#004aad" d="M 36.296875 56.101562 C 22.632812 56.101562 11.515625 45.019531 11.515625 31.394531 C 11.515625 17.769531 22.632812 6.6875 36.296875 6.6875 C 43.1875 6.6875 49.820312 9.578125 54.496094 14.621094 L 55.765625 15.988281 L 46.167969 24.835938 L 44.898438 23.46875 C 42.65625 21.050781 39.601562 19.71875 36.296875 19.71875 C 29.839844 19.71875 24.585938 24.957031 24.585938 31.394531 C 24.585938 34.878906 26.136719 38.15625 28.839844 40.386719 L 26.453125 43.253906 C 22.894531 40.3125 20.851562 35.988281 20.851562 31.394531 C 20.851562 22.902344 27.78125 15.996094 36.296875 15.996094 C 40.023438 15.996094 43.511719 17.28125 46.292969 19.648438 L 50.425781 15.839844 C 46.574219 12.371094 41.523438 10.410156 36.296875 10.410156 C 24.691406 10.410156 15.25 19.824219 15.25 31.394531 C 15.25 42.964844 24.691406 52.378906 36.296875 52.378906 C 40.730469 52.378906 44.96875 51.019531 48.5625 48.453125 C 49.523438 47.761719 50.433594 46.988281 51.273438 46.140625 L 53.929688 48.757812 C 52.945312 49.75 51.871094 50.667969 50.738281 51.476562 C 46.507812 54.503906 41.515625 56.101562 36.296875 56.101562 " fill-opacity="1" fill-rule="nonzero"/></g><g clip-path="url(#b9aaedb896)"><path fill="#004aad" d="M 41.429688 45.082031 C 41.332031 45.082031 41.234375 45.054688 41.152344 44.992188 C 40.941406 44.839844 40.898438 44.542969 41.050781 44.332031 C 41.984375 43.0625 42.667969 41.648438 43.085938 40.121094 C 43.15625 39.871094 43.414062 39.722656 43.664062 39.792969 C 43.917969 39.863281 44.0625 40.121094 43.992188 40.375 C 43.542969 42.007812 42.808594 43.53125 41.804688 44.894531 C 41.714844 45.015625 41.574219 45.082031 41.429688 45.082031 Z M 41.429688 45.082031 " fill-opacity="1" fill-rule="nonzero"/></g><path fill="#004aad" d="M 38.59375 44.222656 C 38.492188 44.222656 38.390625 44.1875 38.304688 44.125 C 38.097656 43.964844 38.0625 43.671875 38.222656 43.464844 C 39.722656 41.523438 40.542969 39.105469 40.542969 36.65625 L 40.542969 36.148438 C 40.542969 35.054688 41.410156 34.144531 42.480469 34.125 C 43.007812 34.117188 43.515625 34.316406 43.894531 34.691406 C 44.277344 35.066406 44.484375 35.566406 44.484375 36.097656 L 44.484375 36.730469 C 44.484375 37.289062 44.449219 37.851562 44.382812 38.40625 C 44.351562 38.667969 44.117188 38.851562 43.859375 38.816406 C 43.601562 38.785156 43.417969 38.550781 43.449219 38.292969 C 43.515625 37.777344 43.542969 37.25 43.542969 36.730469 L 43.542969 36.097656 C 43.542969 35.816406 43.433594 35.554688 43.234375 35.359375 C 43.035156 35.164062 42.773438 35.054688 42.492188 35.066406 C 41.9375 35.074219 41.484375 35.5625 41.484375 36.144531 L 41.484375 36.652344 C 41.484375 39.3125 40.585938 41.9375 38.960938 44.039062 C 38.867188 44.15625 38.730469 44.222656 38.59375 44.222656 Z M 38.59375 44.222656 " fill-opacity="1" fill-rule="nonzero"/><g clip-path="url(#acef9d11e5)"><path fill="#004aad" d="M 43.171875 45.082031 C 43.09375 45.082031 43.011719 45.0625 42.933594 45.019531 C 42.710938 44.886719 42.632812 44.601562 42.765625 44.371094 L 42.886719 44.167969 C 44.238281 41.839844 44.949219 39.183594 44.949219 36.488281 L 44.949219 36.097656 C 44.949219 34.777344 43.878906 33.679688 42.5625 33.65625 C 42.300781 33.652344 42.09375 33.433594 42.101562 33.175781 C 42.105469 32.917969 42.316406 32.714844 42.570312 32.714844 C 42.574219 32.714844 42.578125 32.714844 42.582031 32.714844 C 44.410156 32.75 45.890625 34.269531 45.890625 36.097656 L 45.890625 36.488281 C 45.890625 39.347656 45.132812 42.167969 43.699219 44.640625 L 43.582031 44.84375 C 43.492188 44.996094 43.335938 45.082031 43.171875 45.082031 Z M 43.171875 45.082031 " fill-opacity="1" fill-rule="nonzero"/></g><path fill="#004aad" d="M 37.371094 43.433594 C 37.277344 43.433594 37.179688 43.402344 37.09375 43.339844 C 36.882812 43.183594 36.839844 42.886719 36.996094 42.679688 L 37.347656 42.203125 C 38.5 40.648438 39.136719 38.722656 39.136719 36.785156 L 39.136719 36.160156 C 39.136719 35.050781 39.675781 33.996094 40.582031 33.34375 C 40.792969 33.195312 41.082031 33.242188 41.238281 33.453125 C 41.390625 33.664062 41.34375 33.957031 41.128906 34.113281 C 40.472656 34.589844 40.082031 35.355469 40.082031 36.164062 L 40.082031 36.789062 C 40.082031 38.925781 39.378906 41.054688 38.105469 42.769531 L 37.753906 43.246094 C 37.660156 43.367188 37.515625 43.433594 37.371094 43.433594 Z M 37.371094 43.433594 " fill-opacity="1" fill-rule="nonzero"/><path fill="#004aad" d="M 44.9375 44.867188 C 44.871094 44.867188 44.796875 44.851562 44.734375 44.820312 C 44.5 44.703125 44.402344 44.421875 44.511719 44.1875 L 44.734375 43.738281 C 45.792969 41.546875 46.351562 39.097656 46.351562 36.664062 L 46.351562 36.097656 C 46.351562 34.015625 44.664062 32.289062 42.585938 32.25 C 41.574219 32.222656 40.605469 32.621094 39.863281 33.347656 C 39.109375 34.09375 38.675781 35.125 38.675781 36.183594 L 38.675781 36.671875 C 38.675781 37.179688 38.628906 37.691406 38.542969 38.195312 C 38.496094 38.449219 38.25 38.621094 37.996094 38.574219 C 37.738281 38.527344 37.570312 38.285156 37.613281 38.027344 C 37.691406 37.582031 37.734375 37.125 37.734375 36.667969 L 37.734375 36.179688 C 37.734375 34.871094 38.269531 33.59375 39.207031 32.675781 C 40.128906 31.765625 41.335938 31.28125 42.605469 31.304688 C 45.1875 31.355469 47.289062 33.503906 47.289062 36.097656 L 47.289062 36.664062 C 47.289062 39.242188 46.695312 41.832031 45.574219 44.148438 L 45.355469 44.601562 C 45.28125 44.769531 45.109375 44.867188 44.9375 44.867188 Z M 44.9375 44.867188 " fill-opacity="1" fill-rule="nonzero"/><path fill="#004aad" d="M 36.375 42.378906 C 36.285156 42.378906 36.191406 42.355469 36.109375 42.300781 C 35.894531 42.15625 35.835938 41.859375 35.984375 41.644531 L 36.421875 40.996094 C 36.746094 40.507812 37.019531 39.980469 37.230469 39.429688 C 37.324219 39.183594 37.59375 39.066406 37.835938 39.160156 C 38.078125 39.253906 38.199219 39.523438 38.105469 39.769531 C 37.871094 40.386719 37.566406 40.976562 37.195312 41.519531 L 36.761719 42.171875 C 36.671875 42.308594 36.523438 42.378906 36.375 42.378906 Z M 36.375 42.378906 " fill-opacity="1" fill-rule="nonzero"/><path fill="#004aad" d="M 46.820312 44.078125 C 46.757812 44.078125 46.691406 44.0625 46.628906 44.035156 C 46.390625 43.925781 46.285156 43.648438 46.390625 43.410156 L 46.445312 43.296875 C 47.316406 41.355469 47.753906 39.289062 47.753906 37.164062 L 47.753906 36.097656 C 47.753906 34.929688 47.382812 33.828125 46.679688 32.90625 C 46.519531 32.699219 46.558594 32.402344 46.765625 32.246094 C 46.96875 32.085938 47.265625 32.125 47.421875 32.332031 C 48.253906 33.421875 48.691406 34.722656 48.691406 36.09375 L 48.691406 37.164062 C 48.691406 39.421875 48.222656 41.617188 47.300781 43.679688 L 47.246094 43.796875 C 47.175781 43.972656 47 44.078125 46.820312 44.078125 Z M 46.820312 44.078125 " fill-opacity="1" fill-rule="nonzero"/><path fill="#004aad" d="M 35.398438 41.28125 C 35.308594 41.28125 35.214844 41.253906 35.136719 41.199219 C 34.921875 41.054688 34.867188 40.761719 35.011719 40.542969 L 35.285156 40.136719 C 35.972656 39.121094 36.332031 37.933594 36.332031 36.703125 L 36.332031 36.191406 C 36.332031 32.777344 39.058594 29.953125 42.410156 29.898438 C 43.773438 29.878906 45.066406 30.289062 46.160156 31.09375 C 46.367188 31.246094 46.414062 31.539062 46.261719 31.75 C 46.105469 31.960938 45.816406 32.007812 45.601562 31.851562 C 44.675781 31.171875 43.574219 30.816406 42.421875 30.84375 C 39.582031 30.890625 37.269531 33.292969 37.269531 36.191406 L 37.269531 36.707031 C 37.269531 38.125 36.851562 39.496094 36.0625 40.667969 L 35.789062 41.070312 C 35.699219 41.203125 35.550781 41.28125 35.398438 41.28125 Z M 35.398438 41.28125 " fill-opacity="1" fill-rule="nonzero"/><path fill="#004aad" d="M 48.921875 42.472656 C 48.871094 42.472656 48.820312 42.464844 48.769531 42.449219 C 48.527344 42.363281 48.394531 42.09375 48.476562 41.847656 C 48.929688 40.519531 49.160156 39.128906 49.160156 37.722656 L 49.160156 36.097656 C 49.160156 34.300781 48.457031 32.617188 47.179688 31.355469 C 45.929688 30.113281 44.273438 29.433594 42.515625 29.433594 C 42.484375 29.433594 42.457031 29.433594 42.425781 29.433594 C 41.863281 29.441406 41.308594 29.519531 40.773438 29.667969 C 40.523438 29.738281 40.265625 29.589844 40.195312 29.339844 C 40.128906 29.085938 40.273438 28.828125 40.523438 28.757812 C 41.132812 28.589844 41.769531 28.5 42.410156 28.492188 C 44.457031 28.46875 46.382812 29.246094 47.839844 30.683594 C 49.296875 32.125 50.097656 34.046875 50.097656 36.097656 L 50.097656 37.722656 C 50.097656 39.230469 49.847656 40.726562 49.363281 42.152344 C 49.300781 42.351562 49.117188 42.472656 48.921875 42.472656 Z M 48.921875 42.472656 " fill-opacity="1" fill-rule="nonzero"/><path fill="#004aad" d="M 34.628906 39.773438 C 34.558594 39.773438 34.484375 39.757812 34.417969 39.722656 C 34.183594 39.605469 34.09375 39.324219 34.207031 39.089844 L 34.449219 38.605469 C 34.761719 37.984375 34.929688 37.289062 34.929688 36.59375 L 34.929688 36.199219 C 34.929688 33.386719 36.441406 30.792969 38.878906 29.433594 C 39.105469 29.308594 39.394531 29.390625 39.519531 29.617188 C 39.644531 29.84375 39.5625 30.132812 39.335938 30.257812 C 37.195312 31.453125 35.867188 33.730469 35.867188 36.203125 L 35.867188 36.597656 C 35.867188 37.441406 35.664062 38.28125 35.289062 39.035156 L 35.046875 39.515625 C 34.96875 39.675781 34.800781 39.773438 34.628906 39.773438 Z M 34.628906 39.773438 " fill-opacity="1" fill-rule="nonzero"/><g clip-path="url(#eb7c209503)"><path fill="#004aad" d="M 50.949219 38.28125 C 50.9375 38.28125 50.925781 38.28125 50.914062 38.28125 C 50.65625 38.257812 50.460938 38.035156 50.480469 37.777344 C 50.542969 36.96875 50.566406 36.097656 50.566406 36.089844 C 50.566406 33.605469 49.441406 31.289062 47.480469 29.746094 C 47.273438 29.585938 47.238281 29.289062 47.402344 29.085938 C 47.5625 28.878906 47.859375 28.84375 48.0625 29.003906 C 50.25 30.722656 51.503906 33.308594 51.503906 36.097656 C 51.503906 36.144531 51.480469 37.011719 51.417969 37.84375 C 51.398438 38.09375 51.195312 38.28125 50.949219 38.28125 Z M 50.949219 38.28125 " fill-opacity="1" fill-rule="nonzero"/></g><g clip-path="url(#3bde906a5c)"><path fill="#004aad" d="M 35.539062 31.664062 C 35.445312 31.664062 35.351562 31.636719 35.269531 31.578125 C 35.058594 31.425781 35.007812 31.136719 35.15625 30.921875 C 36.835938 28.519531 39.585938 27.082031 42.515625 27.082031 C 43.945312 27.082031 45.316406 27.410156 46.582031 28.054688 C 46.8125 28.175781 46.90625 28.457031 46.785156 28.691406 C 46.667969 28.921875 46.386719 29.015625 46.152344 28.898438 C 45.019531 28.320312 43.792969 28.023438 42.511719 28.023438 C 39.890625 28.023438 37.425781 29.308594 35.921875 31.464844 C 35.832031 31.59375 35.6875 31.664062 35.539062 31.664062 Z M 35.539062 31.664062 " fill-opacity="1" fill-rule="nonzero"/></g><g clip-path="url(#54789ec405)"><path fill="#004aad" d="M 34.136719 37.820312 C 33.933594 37.820312 33.742188 37.683594 33.683594 37.476562 C 33.527344 36.90625 33.527344 36.128906 33.527344 36.097656 C 33.527344 34.769531 33.804688 33.488281 34.359375 32.296875 C 34.472656 32.0625 34.75 31.957031 34.984375 32.070312 C 35.21875 32.175781 35.324219 32.457031 35.210938 32.695312 C 34.714844 33.761719 34.464844 34.90625 34.464844 36.097656 C 34.464844 36.285156 34.484375 36.851562 34.589844 37.21875 C 34.660156 37.472656 34.515625 37.734375 34.265625 37.800781 C 34.222656 37.8125 34.179688 37.820312 34.136719 37.820312 Z M 34.136719 37.820312 " fill-opacity="1" fill-rule="nonzero"/></g><path fill="#004aad" d="M 39.910156 44.867188 C 39.816406 44.867188 39.722656 44.839844 39.636719 44.78125 C 39.425781 44.628906 39.378906 44.332031 39.53125 44.125 C 39.785156 43.765625 40.027344 43.390625 40.246094 43.015625 C 40.375 42.789062 40.664062 42.710938 40.890625 42.839844 C 41.113281 42.96875 41.191406 43.257812 41.0625 43.484375 C 40.828125 43.890625 40.570312 44.289062 40.300781 44.671875 C 40.203125 44.796875 40.058594 44.867188 39.910156 44.867188 Z M 39.910156 44.867188 " fill-opacity="1" fill-rule="nonzero"/><path fill="#004aad" d="M 41.433594 42.152344 C 41.371094 42.152344 41.308594 42.140625 41.25 42.117188 C 41.011719 42.015625 40.898438 41.738281 41 41.5 C 42.242188 38.574219 42.050781 36.164062 42.046875 36.140625 C 42.027344 35.878906 42.214844 35.652344 42.476562 35.628906 C 42.734375 35.613281 42.960938 35.800781 42.980469 36.058594 C 42.992188 36.167969 43.191406 38.726562 41.863281 41.867188 C 41.789062 42.042969 41.613281 42.152344 41.433594 42.152344 Z M 41.433594 42.152344 " fill-opacity="1" fill-rule="nonzero"/><g fill="#000000" fill-opacity="1"><g transform="translate(64.825795, 39.409599)"><g><path d="M 3.6875 -12.25 L 3.6875 0 L 0.890625 0 L 0.890625 -12.25 Z M 3.6875 -12.25 "/></g></g></g><g fill="#000000" fill-opacity="1"><g transform="translate(69.394323, 39.409599)"><g><path d="M 3.6875 -7.59375 L 3.6875 0 L 0.890625 0 L 0.890625 -12.25 L 3.6875 -12.25 L 8.546875 -4.640625 L 8.578125 -4.640625 L 8.578125 -12.25 L 11.375 -12.25 L 11.375 0 L 8.578125 0 L 3.703125 -7.59375 Z M 3.6875 -7.59375 "/></g></g></g><g fill="#000000" fill-opacity="1"><g transform="translate(81.646277, 39.409599)"><g><path d="M 5.40625 -12.46875 C 6.0625 -12.46875 6.707031 -12.367188 7.34375 -12.171875 C 7.976562 -11.984375 8.445312 -11.796875 8.75 -11.609375 L 9.203125 -11.3125 L 8.078125 -9.078125 C 7.984375 -9.140625 7.859375 -9.21875 7.703125 -9.3125 C 7.546875 -9.40625 7.25 -9.53125 6.8125 -9.6875 C 6.375 -9.851562 5.96875 -9.9375 5.59375 -9.9375 C 5.125 -9.9375 4.765625 -9.835938 4.515625 -9.640625 C 4.265625 -9.441406 4.140625 -9.171875 4.140625 -8.828125 C 4.140625 -8.660156 4.195312 -8.503906 4.3125 -8.359375 C 4.4375 -8.222656 4.640625 -8.070312 4.921875 -7.90625 C 5.210938 -7.738281 5.46875 -7.601562 5.6875 -7.5 C 5.90625 -7.40625 6.238281 -7.257812 6.6875 -7.0625 C 7.476562 -6.726562 8.15625 -6.269531 8.71875 -5.6875 C 9.28125 -5.113281 9.5625 -4.457031 9.5625 -3.71875 C 9.5625 -3.019531 9.429688 -2.40625 9.171875 -1.875 C 8.921875 -1.351562 8.578125 -0.941406 8.140625 -0.640625 C 7.703125 -0.347656 7.210938 -0.132812 6.671875 0 C 6.140625 0.144531 5.5625 0.21875 4.9375 0.21875 C 4.40625 0.21875 3.878906 0.160156 3.359375 0.046875 C 2.847656 -0.0546875 2.421875 -0.1875 2.078125 -0.34375 C 1.734375 -0.507812 1.421875 -0.671875 1.140625 -0.828125 C 0.867188 -0.984375 0.664062 -1.117188 0.53125 -1.234375 L 0.34375 -1.390625 L 1.734375 -3.734375 C 1.859375 -3.640625 2.019531 -3.515625 2.21875 -3.359375 C 2.425781 -3.203125 2.796875 -2.992188 3.328125 -2.734375 C 3.859375 -2.484375 4.328125 -2.359375 4.734375 -2.359375 C 5.910156 -2.359375 6.5 -2.757812 6.5 -3.5625 C 6.5 -3.726562 6.457031 -3.882812 6.375 -4.03125 C 6.289062 -4.175781 6.140625 -4.316406 5.921875 -4.453125 C 5.710938 -4.597656 5.523438 -4.710938 5.359375 -4.796875 C 5.203125 -4.878906 4.9375 -5.007812 4.5625 -5.1875 C 4.1875 -5.363281 3.910156 -5.492188 3.734375 -5.578125 C 2.992188 -5.941406 2.421875 -6.398438 2.015625 -6.953125 C 1.609375 -7.503906 1.40625 -8.097656 1.40625 -8.734375 C 1.40625 -9.828125 1.8125 -10.722656 2.625 -11.421875 C 3.4375 -12.117188 4.363281 -12.46875 5.40625 -12.46875 Z M 5.40625 -12.46875 "/></g></g></g><g fill="#000000" fill-opacity="1"><g transform="translate(91.613967, 39.409599)"><g><path d="M 0.125 -9.796875 L 0.125 -12.25 L 8.734375 -12.25 L 8.734375 -9.796875 L 5.8125 -9.796875 L 5.8125 0 L 3.03125 0 L 3.03125 -9.796875 Z M 0.125 -9.796875 "/></g></g></g><g fill="#000000" fill-opacity="1"><g transform="translate(100.454363, 39.409599)"><g><path d="M 3.6875 -12.25 L 3.6875 0 L 0.890625 0 L 0.890625 -12.25 Z M 3.6875 -12.25 "/></g></g></g><g fill="#000000" fill-opacity="1"><g transform="translate(105.022891, 39.409599)"><g><path d="M 0.125 -9.796875 L 0.125 -12.25 L 8.734375 -12.25 L 8.734375 -9.796875 L 5.8125 -9.796875 L 5.8125 0 L 3.03125 0 L 3.03125 -9.796875 Z M 0.125 -9.796875 "/></g></g></g><g fill="#000000" fill-opacity="1"><g transform="translate(113.863286, 39.409599)"><g><path d="M 10.296875 -12.25 L 10.296875 -4.34375 C 10.296875 -2.84375 9.890625 -1.707031 9.078125 -0.9375 C 8.265625 -0.164062 7.078125 0.21875 5.515625 0.21875 C 3.953125 0.21875 2.765625 -0.164062 1.953125 -0.9375 C 1.140625 -1.707031 0.734375 -2.84375 0.734375 -4.34375 L 0.734375 -12.25 L 3.53125 -12.25 L 3.53125 -5.171875 C 3.53125 -4.179688 3.6875 -3.488281 4 -3.09375 C 4.3125 -2.707031 4.816406 -2.515625 5.515625 -2.515625 C 6.222656 -2.515625 6.734375 -2.707031 7.046875 -3.09375 C 7.359375 -3.488281 7.515625 -4.179688 7.515625 -5.171875 L 7.515625 -12.25 Z M 10.296875 -12.25 "/></g></g></g><g fill="#000000" fill-opacity="1"><g transform="translate(124.898943, 39.409599)"><g><path d="M 0.125 -9.796875 L 0.125 -12.25 L 8.734375 -12.25 L 8.734375 -9.796875 L 5.8125 -9.796875 L 5.8125 0 L 3.03125 0 L 3.03125 -9.796875 Z M 0.125 -9.796875 "/></g></g></g><g fill="#000000" fill-opacity="1"><g transform="translate(133.739339, 39.409599)"><g><path d="M 0.34375 -6.125 C 0.34375 -7.894531 0.945312 -9.394531 2.15625 -10.625 C 3.363281 -11.851562 4.816406 -12.46875 6.515625 -12.46875 C 8.222656 -12.46875 9.675781 -11.851562 10.875 -10.625 C 12.070312 -9.40625 12.671875 -7.90625 12.671875 -6.125 C 12.671875 -4.332031 12.082031 -2.828125 10.90625 -1.609375 C 9.726562 -0.390625 8.265625 0.21875 6.515625 0.21875 C 4.722656 0.21875 3.242188 -0.382812 2.078125 -1.59375 C 0.921875 -2.800781 0.34375 -4.3125 0.34375 -6.125 Z M 3.359375 -6.125 C 3.359375 -5.488281 3.457031 -4.90625 3.65625 -4.375 C 3.851562 -3.84375 4.195312 -3.394531 4.6875 -3.03125 C 5.1875 -2.664062 5.796875 -2.484375 6.515625 -2.484375 C 7.554688 -2.484375 8.335938 -2.835938 8.859375 -3.546875 C 9.390625 -4.253906 9.65625 -5.113281 9.65625 -6.125 C 9.65625 -7.125 9.382812 -7.984375 8.84375 -8.703125 C 8.3125 -9.421875 7.535156 -9.78125 6.515625 -9.78125 C 5.503906 -9.78125 4.722656 -9.421875 4.171875 -8.703125 C 3.628906 -7.984375 3.359375 -7.125 3.359375 -6.125 Z M 3.359375 -6.125 "/></g></g></g><g fill="#000000" fill-opacity="1"><g transform="translate(146.747765, 39.409599)"><g/></g></g><g fill="#000000" fill-opacity="1"><g transform="translate(150.79714, 39.409599)"><g><path d="M 7.96875 -12.25 L 7.96875 -9.796875 L 3.6875 -9.796875 L 3.6875 -7.359375 L 7.640625 -7.359375 L 7.640625 -4.90625 L 3.6875 -4.90625 L 3.6875 0 L 0.890625 0 L 0.890625 -12.25 Z M 7.96875 -12.25 "/></g></g></g><g fill="#000000" fill-opacity="1"><g transform="translate(159.207378, 39.409599)"><g><path d="M 3.6875 -12.25 L 3.6875 0 L 0.890625 0 L 0.890625 -12.25 Z M 3.6875 -12.25 "/></g></g></g><g fill="#000000" fill-opacity="1"><g transform="translate(163.775906, 39.409599)"><g><path d="M 5.40625 -12.46875 C 6.0625 -12.46875 6.707031 -12.367188 7.34375 -12.171875 C 7.976562 -11.984375 8.445312 -11.796875 8.75 -11.609375 L 9.203125 -11.3125 L 8.078125 -9.078125 C 7.984375 -9.140625 7.859375 -9.21875 7.703125 -9.3125 C 7.546875 -9.40625 7.25 -9.53125 6.8125 -9.6875 C 6.375 -9.851562 5.96875 -9.9375 5.59375 -9.9375 C 5.125 -9.9375 4.765625 -9.835938 4.515625 -9.640625 C 4.265625 -9.441406 4.140625 -9.171875 4.140625 -8.828125 C 4.140625 -8.660156 4.195312 -8.503906 4.3125 -8.359375 C 4.4375 -8.222656 4.640625 -8.070312 4.921875 -7.90625 C 5.210938 -7.738281 5.46875 -7.601562 5.6875 -7.5 C 5.90625 -7.40625 6.238281 -7.257812 6.6875 -7.0625 C 7.476562 -6.726562 8.15625 -6.269531 8.71875 -5.6875 C 9.28125 -5.113281 9.5625 -4.457031 9.5625 -3.71875 C 9.5625 -3.019531 9.429688 -2.40625 9.171875 -1.875 C 8.921875 -1.351562 8.578125 -0.941406 8.140625 -0.640625 C 7.703125 -0.347656 7.210938 -0.132812 6.671875 0 C 6.140625 0.144531 5.5625 0.21875 4.9375 0.21875 C 4.40625 0.21875 3.878906 0.160156 3.359375 0.046875 C 2.847656 -0.0546875 2.421875 -0.1875 2.078125 -0.34375 C 1.734375 -0.507812 1.421875 -0.671875 1.140625 -0.828125 C 0.867188 -0.984375 0.664062 -1.117188 0.53125 -1.234375 L 0.34375 -1.390625 L 1.734375 -3.734375 C 1.859375 -3.640625 2.019531 -3.515625 2.21875 -3.359375 C 2.425781 -3.203125 2.796875 -2.992188 3.328125 -2.734375 C 3.859375 -2.484375 4.328125 -2.359375 4.734375 -2.359375 C 5.910156 -2.359375 6.5 -2.757812 6.5 -3.5625 C 6.5 -3.726562 6.457031 -3.882812 6.375 -4.03125 C 6.289062 -4.175781 6.140625 -4.316406 5.921875 -4.453125 C 5.710938 -4.597656 5.523438 -4.710938 5.359375 -4.796875 C 5.203125 -4.878906 4.9375 -5.007812 4.5625 -5.1875 C 4.1875 -5.363281 3.910156 -5.492188 3.734375 -5.578125 C 2.992188 -5.941406 2.421875 -6.398438 2.015625 -6.953125 C 1.609375 -7.503906 1.40625 -8.097656 1.40625 -8.734375 C 1.40625 -9.828125 1.8125 -10.722656 2.625 -11.421875 C 3.4375 -12.117188 4.363281 -12.46875 5.40625 -12.46875 Z M 5.40625 -12.46875 "/></g></g></g><g fill="#000000" fill-opacity="1"><g transform="translate(173.743596, 39.409599)"><g><path d="M 11.015625 0 L 10.4375 -7.265625 L 10.359375 -7.265625 L 7.859375 -0.078125 L 6.1875 -0.078125 L 3.6875 -7.265625 L 3.609375 -7.265625 L 3.03125 0 L 0.234375 0 L 1.328125 -12.25 L 4.296875 -12.25 L 7.015625 -5.1875 L 9.734375 -12.25 L 12.703125 -12.25 L 13.796875 0 Z M 11.015625 0 "/></g></g></g><g fill="#000000" fill-opacity="1"><g transform="translate(187.775502, 39.409599)"><g><path d="M 7.890625 -12.25 L 7.890625 -9.796875 L 3.6875 -9.796875 L 3.6875 -7.359375 L 7.71875 -7.359375 L 7.71875 -4.90625 L 3.6875 -4.90625 L 3.6875 -2.453125 L 7.890625 -2.453125 L 7.890625 0 L 0.890625 0 L 0.890625 -12.25 Z M 7.890625 -12.25 "/></g></g></g></svg>